HIERARCHY
ROOT Hips
{
  OFFSET 1.44925e-005 102.336 -0.101585
  CHANNELS 6 Xposition Yposition Zposition Zrotation Xrotation Yrotation
  JOINT RightUpLeg
  {
    OFFSET -8.9458 -8.66707 0.101652
    CHANNELS 3 Zrotation Xrotation Yrotation
    JOINT RightLeg
    {
      OFFSET 0 -44.4227 1.3727
      CHANNELS 3 Zrotation Xrotation Yrotation
      JOINT RightFoot
      {
        OFFSET 0.253549 -42.0924 -1.46059
        CHANNELS 3 Zrotation Xrotation Yrotation
        JOINT RightToes
        {
          OFFSET 0.04 -4.41509 8.4991
          CHANNELS 3 Zrotation Xrotation Yrotation
          End Site
          {
            OFFSET -0.08 -0.137448 9.77979
          }
        }
      }
    }
  }
  JOINT Spine
  {
    OFFSET 0 11.8905 0
    CHANNELS 3 Zrotation Xrotation Yrotation
    JOINT Spine1
    {
      OFFSET 0 25.6574 0.127663
      CHANNELS 3 Zrotation Xrotation Yrotation
      JOINT HEad
      {
        OFFSET 0 8.73416 0.011341
        CHANNELS 3 Zrotation Xrotation Yrotation
        End Site
        {
          OFFSET -0.29 12.7742 2.51395
        }
      }
      JOINT LeftShoulder1
      {
        OFFSET 8.99 -0.362252 -0.22
        CHANNELS 3 Zrotation Xrotation Yrotation
        JOINT LeftArm
        {
          OFFSET 10.2827 -0.00337999 0.322123
          CHANNELS 3 Zrotation Xrotation Yrotation
          JOINT LeftForeArm
          {
            OFFSET 26.2597 0.099144 -1.42434
            CHANNELS 3 Zrotation Xrotation Yrotation
            JOINT LeftHand
            {
              OFFSET 22.0902 0.085362 1.02216
              CHANNELS 3 Zrotation Xrotation Yrotation
              End Site
              {
                OFFSET 13.419 -0.6 1.50291
              }
            }
          }
        }
      }
      JOINT RightShoulder
      {
        OFFSET -8.99 -0.362252 -0.22
        CHANNELS 3 Zrotation Xrotation Yrotation
        JOINT RightArm
        {
          OFFSET -10.2827 -0.00338 0.322123
          CHANNELS 3 Zrotation Xrotation Yrotation
          JOINT RightForeArm
          {
            OFFSET -26.364 0.099144 -1.42434
            CHANNELS 3 Zrotation Xrotation Yrotation
            JOINT RightHand
            {
              OFFSET -22.0324 0.085362 1.02216
              CHANNELS 3 Zrotation Xrotation Yrotation
              End Site
              {
                OFFSET -13.3284 -0.6 1.50291
              }
            }
          }
        }
      }
    }
  }
  JOINT LeftUpLeg
  {
    OFFSET 8.9458 -8.66707 0.101652
    CHANNELS 3 Zrotation Xrotation Yrotation
    JOINT LeftLeg
    {
      OFFSET 0 -44.4227 1.3727
      CHANNELS 3 Zrotation Xrotation Yrotation
      JOINT LeftFoot
      {
        OFFSET -0.253549 -42.0924 -1.46059
        CHANNELS 3 Zrotation Xrotation Yrotation
        JOINT LeftToes
        {
          OFFSET -0.04 -4.41509 8.4991
          CHANNELS 3 Zrotation Xrotation Yrotation
          End Site
          {
            OFFSET 0.08 -0.047448 9.77979
          }
        }
      }
    }
  }
}
MOTION
Frames:	14
Frame Time:	0.0333333
-14.3788 96.8735 122.424 2.19672 -0.222904 -174.75 -24.1752 -19.1356 -21.1659 -0.341936 39.323 1.7803 20.7336 -12.1457 0.63031 0.0462048 0.000530889 0.662642 9.21726 15.508 -1.36212 -2.88537 4.99232 0.441532 -0.702226 -30.1523 -8.30802 -24.1318 2.75095 -5.53644 -60.8589 -1.60819 -39.0524 -22.7087 13.8429 -59.2194 13.6201 7.56114 -15.595 32.5389 5.67762 10.5882 40.6323 1.66655 29.6312 -29.8969 27.3868 86.1234 -40.5425 10.1249 -6.07145 28.3021 -14.7233 10.5942 0.0132512 34.454 -8.31029 -25.035 -15.3449 -1.66015 -1.42503e-009 8.75253e-006 -1.46865e-008 
-13.7465 97.189 122.388 2.06202 -0.435279 -174.887 -23.9693 -19.1861 -21.6611 -0.323139 38.978 2.14504 20.292 -12.1272 0.608926 0.0462048 0.000530889 0.662642 9.52966 15.1988 -1.54704 -3.27028 4.89692 0.343662 -0.531425 -30.2049 -8.16694 -24.0829 2.7555 -5.56521 -61.0503 -1.76751 -38.5319 -22.7573 13.9012 -59.3859 13.1243 7.67142 -15.4293 32.1363 5.63147 10.616 40.9227 1.87744 29.2993 -30.0933 27.2765 86.4231 -40.1524 10.1576 -6.17145 28.2478 -13.663 10.7117 0.0200242 32.032 -8.18962 -25.1949 -14.4676 -1.47515 -1.42503e-009 8.75253e-006 -1.46865e-008 
-13.1864 97.3899 122.38 1.87903 -0.596161 -174.978 -23.8091 -19.3837 -21.7684 -0.322675 38.9792 2.15544 19.9758 -12.2732 0.621347 0.0462048 0.000530889 0.662642 9.61986 14.9053 -1.65516 -3.58047 4.86726 0.266358 -0.446061 -30.2562 -8.08596 -24.1069 2.75672 -5.56238 -61.0347 -1.64646 -38.252 -22.9578 13.8054 -59.3549 13.089 7.68102 -15.4 31.8691 5.60172 10.6369 40.8725 1.97843 29.0143 -30.3542 27.1861 86.7131 -40.0034 10.265 -6.48287 28.1408 -12.7285 10.6443 0.0269229 29.9146 -8.0657 -25.5579 -13.7131 -1.32731 -1.42503e-009 8.75253e-006 -1.46865e-008 
-12.7257 97.4759 122.403 1.64866 -0.715784 -174.933 -23.7154 -19.6787 -21.4744 -0.340608 39.2587 1.78993 19.8441 -12.4822 0.651751 0.0462048 0.000530889 0.662642 9.48753 14.6432 -1.74326 -3.66309 4.87521 0.133306 -0.469453 -30.2696 -8.00885 -24.1036 2.77168 -5.61238 -61.0055 -1.4589 -38.138 -23.0576 13.7196 -59.2597 13.5938 7.5693 -15.5657 31.7986 5.57565 10.5949 40.5575 2 28.9043 -30.4421 27.1488 86.8227 -39.8687 10.2944 -6.57159 27.9504 -12.0845 10.3374 0.0358705 28.2818 -7.90369 -25.9759 -13.1678 -1.22565 -1.42503e-009 8.75253e-006 -1.46865e-008 
-12.371 97.492 122.479 1.41145 -0.771352 -174.77 -23.6943 -19.995 -21.0385 -0.367762 39.7101 1.24863 19.7556 -12.6756 0.680951 0.0462048 0.000530889 0.662642 9.2607 14.5152 -1.85031 -3.48311 4.87915 -0.064319 -0.567575 -30.3436 -7.96089 -24.0662 2.79361 -5.69493 -61.0266 -1.37397 -38.1607 -22.9912 13.7273 -59.2189 13.9865 7.45692 -15.9061 31.8636 5.56718 10.549 40.2253 1.9207 28.9637 -30.4662 27.1347 86.8595 -39.7126 10.2388 -6.41599 27.7726 -11.7244 10.1583 0.0367313 27.1779 -7.9187 -26.1954 -12.8306 -1.15875 -1.42503e-009 8.75253e-006 -1.46865e-008 
-12.1096 97.447 122.629 1.19798 -0.756374 -174.529 -23.7804 -20.301 -20.7757 -0.393685 40.3043 0.759167 19.6315 -12.885 0.710898 0.0462048 0.000530889 0.662642 9.03975 14.5984 -1.97784 -3.16516 4.8234 -0.284746 -0.619867 -30.475 -7.94528 -24.0705 2.8049 -5.73072 -61.0387 -1.37654 -38.3369 -22.9856 13.7207 -59.2002 13.8377 7.4533 -16.1795 31.8939 5.58611 10.5872 40.1593 1.68143 29.0797 -30.6663 27.1286 86.9635 -39.8057 10.1807 -6.24577 27.7148 -11.6485 10.3729 0.0211002 26.645 -8.30163 -26.2903 -12.603 -1.11038 -1.42503e-009 8.75253e-006 -1.46865e-008 
-11.9427 97.3294 122.836 1.00138 -0.699085 -174.219 -24.0184 -20.5559 -20.7717 -0.411286 40.9552 0.464336 19.5742 -13.1335 0.75037 0.0462048 0.000530889 0.662642 8.88323 14.8572 -2.10771 -2.91541 4.64836 -0.471336 -0.545216 -30.4676 -7.96137 -24.113 2.80499 -5.71874 -61.007 -1.34821 -38.6167 -23.1354 13.6242 -59.1268 13.519 7.50787 -16.2357 31.8488 5.61273 10.6731 40.376 1.34177 29.1606 -31.029 27.1421 87.1066 -40.1627 10.14 -6.12108 27.7385 -11.8887 10.7531 -0.00477835 26.7026 -8.92887 -26.4049 -12.4715 -1.085 -1.42503e-009 8.75253e-006 -1.46865e-008 
-11.8931 97.1712 123.055 0.841636 -0.638187 -173.889 -24.3704 -20.7516 -20.9375 -0.41945 41.5376 0.372766 19.6073 -13.3179 0.783381 0.0462048 0.000530889 0.662642 8.88583 15.1465 -2.21569 -2.86608 4.3809 -0.573695 -0.455745 -30.1732 -8.09758 -24.1347 2.80898 -5.72555 -60.9661 -1.24147 -38.8994 -23.242 13.5224 -59.0066 13.5516 7.49539 -16.2904 31.8628 5.62423 10.6979 40.5792 1.09367 29.2328 -31.2605 27.1801 87.1454 -40.3919 10.1066 -6.02159 27.7407 -12.3773 10.9345 -0.0272519 27.232 -9.47519 -26.4119 -12.5754 -1.1095 -1.42503e-009 8.75253e-006 -1.46865e-008 
-11.9674 97.0065 123.262 0.777991 -0.562244 -173.649 -24.7134 -20.9277 -21.1864 -0.421887 42.038 0.393626 19.6517 -13.3761 0.795599 0.0462048 0.000530889 0.662642 9.09628 15.349 -2.27436 -3.01216 4.16037 -0.564638 -0.516688 -29.7097 -8.3868 -24.1243 2.8263 -5.78528 -60.9916 -1.14733 -39.1334 -23.2008 13.493 -58.9109 13.8614 7.4084 -16.5272 31.9795 5.6245 10.6555 40.5395 1.05416 29.381 -31.1339 27.2348 86.9902 -40.3748 10.1022 -6.00953 27.733 -12.9404 10.8632 -0.0398453 28.0751 -9.75833 -26.2568 -13.0156 -1.20456 -1.42503e-009 8.75253e-006 -1.46865e-008 
-12.1349 96.8123 123.47 0.807554 -0.392564 -173.587 -24.95 -21.0663 -21.3503 -0.422629 42.5029 0.441896 19.7352 -13.4334 0.809804 0.0462048 0.000530889 0.662642 9.35584 15.5335 -2.25978 -3.22885 4.06461 -0.458656 -0.661228 -29.3088 -8.63013 -24.0906 2.84937 -5.87068 -61.1147 -1.16196 -39.3152 -23.1454 13.512 -58.9023 14.0833 7.33718 -16.7654 32.0626 5.62861 10.6356 40.357 1.16061 29.624 -30.7873 27.3105 86.6923 -40.4741 10.118 -6.05259 27.787 -13.4613 10.6864 -0.0445854 29.2206 -9.83114 -26.1443 -13.6714 -1.35088 -1.42503e-009 8.75253e-006 -1.46865e-008 
-12.3666 96.5656 123.696 0.857916 -0.094672 -173.695 -25.083 -21.1571 -21.1953 -0.4235 42.945 0.482705 19.8625 -13.5351 0.83404 0.0462048 0.000530889 0.662642 9.45073 15.8528 -2.16808 -3.37644 3.97252 -0.295353 -0.669732 -29.0194 -8.61367 -24.0235 2.86071 -5.92762 -61.219 -1.23625 -39.4203 -23.1 13.5757 -58.9954 14.139 7.31463 -16.8627 32.0417 5.63753 10.6664 40.2403 1.32367 29.8847 -30.5482 27.4223 86.376 -40.8069 10.1122 -6.03027 27.8845 -13.9596 10.5153 -0.0466473 30.7168 -9.82426 -26.0755 -14.3664 -1.5077 -1.42503e-009 8.75253e-006 -1.46865e-008 
-12.6747 96.2883 123.93 0.938671 0.240402 -173.917 -25.1731 -21.3353 -20.8025 -0.425267 43.4282 0.514262 19.8876 -13.4996 0.829274 0.0462048 0.000530889 0.662642 9.46088 16.2793 -2.03079 -3.47195 3.74095 -0.095465 -0.528481 -28.7147 -8.4266 -23.9468 2.85231 -5.92265 -61.1392 -1.25738 -39.4195 -22.9281 13.7161 -59.1411 14.1367 7.3021 -16.9722 32.0116 5.64601 10.6995 40.2369 1.51932 30.071 -30.51 27.555 86.1163 -41.0276 10.1183 -6.04336 28.0234 -14.5056 10.4636 -0.0515672 32.4963 -9.86168 -25.815 -15.1589 -1.67304 -1.42503e-009 8.75253e-006 -1.46865e-008 
-13.0798 95.9643 124.16 1.1351 0.544692 -174.184 -25.2884 -21.6563 -20.5831 -0.425431 44.0693 0.598207 19.8767 -13.3584 0.804241 0.0462048 0.000530889 0.662642 9.61857 16.6913 -1.90747 -3.66004 3.4007 0.12542 -0.431106 -28.3474 -8.33693 -23.9006 2.83705 -5.88606 -60.9028 -1.22203 -39.347 -22.7208 13.858 -59.262 14.0665 7.29754 -17.1288 32.0222 5.65514 10.7192 40.3182 1.68318 30.151 -30.4985 27.6679 85.9055 -41.0491 10.1976 -6.26394 28.3063 -15.161 10.5911 -0.064228 34.5295 -10.0515 -25.4396 -16.2243 -1.88846 -1.42503e-009 8.75253e-006 -1.46865e-008 
-13.5775 95.5162 124.409 1.39835 0.91965 -174.377 -25.5281 -21.8854 -20.6499 -0.418232 44.8608 0.843966 20.1601 -13.4482 0.834959 0.0462048 0.000530889 0.662642 9.83942 17.1961 -1.84444 -3.92805 3.00747 0.308384 -0.426222 -27.9821 -8.4576 -23.8421 2.82993 -5.87986 -60.665 -1.16785 -39.2846 -22.7514 13.8784 -59.3319 13.9397 7.32643 -17.0984 31.9949 5.66002 10.742 40.5232 1.71415 30.1444 -30.4179 27.7507 85.7142 -41.1793 10.2666 -6.45296 28.6818 -16.0102 10.6628 -0.082008 37.0093 -10.342 -25.1769 -17.519 -2.15909 -1.42503e-009 8.75253e-006 -1.46865e-008 
